# xmcd CD database file
#
# Track frame offsets:
#	150
#	14835
#	29043
#	42975
#	55431
#	65703
#	79997
#	94764
#	109910
#	121172
#	134735
#	148618
#	163797
#	178641
#	193303
#	208446
#	222812
#	237684
#	252545
#	267396
#	282242
#	295773
#
# Disc length: 4134 seconds
#
# Revision: 0
# Processed by: cddbd v1.5.1PL0 Copyright (c) Steve Scherf et al.
# Submitted via: CDex 1.51
#
DISCID=78102416
DTITLE=Benny Goodman and Peggy Lee - Why Don't You Do Right
DYEAR=2001
DGENRE=Jazz
TTITLE0=I Got It Bad (And That Ain't Good)
TTITLE1=My Old Flame
TTITLE2=How Deep Is The Ocean
TTITLE3=Shady Lady Bird
TTITLE4=Let's Do It (Let's Fall In Love)
TTITLE5=Somebody Else Is Taking My Place
TTITLE6=How Long Has This Been Going On
TTITLE7=Somebody Nobody Loves
TTITLE8=That Did It, Marie
TTITLE9=Winter Weather
TTITLE10=Ev'rything I Love
TTITLE11=Not A Care In The World
TTITLE12=Not Mine
TTITLE13=Blues In The Night
TTITLE14=When Or Where
TTITLE15=On The Sunny Side Of The Street
TTITLE16=My Little Cousin
TTITLE17=The Way You Look Tonight
TTITLE18=Full Moon (Noche De Luna)
TTITLE19=We'll Meet Again
TTITLE20=I Threw A Kiss In The Ocean
TTITLE21=Why Don't You Do Right
EXTD=YEAR: 2001
EXTT0=
EXTT1=
EXTT2=
EXTT3=
EXTT4=
EXTT5=
EXTT6=
EXTT7=
EXTT8=
EXTT9=
EXTT10=
EXTT11=
EXTT12=
EXTT13=
EXTT14=
EXTT15=
EXTT16=
EXTT17=
EXTT18=
EXTT19=
EXTT20=
EXTT21=
PLAYORDER=
